<svg aria-hidden="true" style="position: absolute; width: 0; height: 0; overflow: hidden;" version="1.1" xmlns="http://www.w3.org/2000/svg" xmlns:xlink="http://www.w3.org/1999/xlink">
<defs>
<symbol id="icon-search" viewBox="0 0 32 32">
<path d="M4.588 13.274c-2.565 2.565-2.565 6.723 0 9.288 2.26 2.26 5.756 2.529 8.31 0.807l5.675 5.675c0.403 0.403 1.055 0.403 1.458 0 0.366-0.366 0.399-0.939 0.1-1.342l-0.1-0.116-5.623-5.624c2.018-2.577 1.841-6.314-0.532-8.687-2.565-2.565-6.723-2.565-9.288 0zM16.034 2.664c-6.341 0-11.648 4.425-13.001 10.356 0.188-0.239 0.392-0.469 0.612-0.689 0.704-0.704 1.509-1.248 2.367-1.631 1.257-2.377 3.338-4.252 5.861-5.248l-0.142 0.232c-0.717 1.191-1.295 2.682-1.7 4.372 0.665 0.068 1.322 0.219 1.954 0.454 0.842-3.503 2.431-5.846 4.049-5.846l0.154 0.007c1.687 0.154 3.317 2.824 4.074 6.661l-6.663-0.001c0.431 0.286 0.84 0.62 1.22 1 0.314 0.314 0.596 0.648 0.847 0.999l4.898 0.002c0.091 0.854 0.139 1.747 0.139 2.667 0 1.413-0.115 2.76-0.32 4l-3.527 0c-0.104 0.381-0.237 0.756-0.399 1.121l-0.172 0.362-0.163 0.306 0.211 0.209 3.619 0c-0.27 0.998-0.601 1.89-0.975 2.646l1.474 1.477c0.656-1.144 1.189-2.545 1.572-4.122l3.63-0.001c-1.187 1.898-2.919 3.42-4.979 4.345l0.3 0.298 0.166 0.187c0.294 0.394 0.46 0.832 0.504 1.27 4.561-2.117 7.725-6.74 7.725-12.101 0-7.365-5.97-13.335-13.335-13.335zM12.418 14.732c1.76 1.76 1.76 4.613 0 6.372s-4.612 1.76-6.372 0c-1.76-1.76-1.76-4.613 0-6.372s4.612-1.76 6.372 0zM22.576 13.333l4.477-0.001 0.011 0.040c0.2 0.843 0.306 1.723 0.306 2.627 0 1.408-0.257 2.756-0.726 4l-4.231 0.001c0.19-1.266 0.29-2.611 0.29-4.001 0-0.912-0.043-1.804-0.127-2.667zM20.193 5.452l0.031 0.012c2.73 1.086 4.938 3.203 6.144 5.869l-4.064-0.001c-0.418-2.337-1.147-4.371-2.11-5.88z"></path>
</symbol>
<symbol id="icon-earth" viewBox="0 0 32 32">
<path fill="#353636" style="fill: var(--color1, #353636)" d="M18.313 0.25c0.046 0.014 0.092 0.027 0.14 0.042 1.235 0.379 2.303 0.999 3.235 1.896 0.046 0.044 0.092 0.088 0.139 0.133 0.18 0.177 0.348 0.349 0.502 0.55 0.183 0.221 0.401 0.352 0.648 0.492 0.063 0.037 0.063 0.037 0.126 0.075 0.282 0.164 0.493 0.256 0.817 0.263 2.479 0.069 4.429 0.879 6.154 2.694 1.528 1.726 2.044 3.916 1.926 6.168-0.073 0.862-0.348 1.669-0.703 2.453-0.274 0.625-0.298 1.174-0.056 1.812 0.061 0.143 0.125 0.285 0.189 0.426 0.349 0.797 0.578 1.619 0.579 2.497 0 0.082 0 0.165 0 0.25-0 0.064-0 0.064-0 0.129-0 0.128 0 0.255 0 0.383 0 0.462-0.017 0.918-0.064 1.378-0.007 0.175 0.017 0.315 0.055 0.486 0.114 1.384 0.114 1.384-0.313 1.938-0.047 0.066-0.047 0.066-0.094 0.132-0.333 0.426-0.791 0.682-1.265 0.926-0.22 0.139-0.347 0.286-0.513 0.483-0.795 0.906-1.82 1.536-2.94 1.958-0.065 0.025-0.13 0.050-0.197 0.075-0.701 0.241-1.495 0.371-2.237 0.363-0.811-0.007-1.381 0.219-2.004 0.749-0.21 0.207-0.393 0.434-0.575 0.665-0.839 1.047-2.278 1.737-3.55 2.085-0.064 0.018-0.064 0.018-0.128 0.037-1.397 0.391-3.107 0.374-4.497-0.037-0.067-0.019-0.067-0.019-0.135-0.039-1.143-0.336-2.187-0.919-3.071-1.716-0.226-0.162-0.464-0.244-0.724-0.339-0.504-0.193-0.983-0.417-1.461-0.668-0.059-0.031-0.119-0.062-0.18-0.094-0.255-0.136-0.501-0.274-0.739-0.438-0.301-0.192-0.624-0.236-0.972-0.295-1.97-0.376-3.76-1.461-4.932-3.117-1.228-1.815-1.803-4.004-1.4-6.187 0.067-0.314 0.155-0.593 0.274-0.892 0.203-0.568 0.201-1.136 0.196-1.733-0.001-0.182 0.001-0.365 0.004-0.547 0.003-0.769-0.124-1.399-0.381-2.121-0.196-0.583-0.191-1.204-0.19-1.813 0-0.042 0-0.085 0-0.128 0.008-1.831 0.599-3.677 1.836-5.059 0.044-0.051 0.087-0.102 0.132-0.154 1.133-1.302 2.672-2.299 4.409-2.529 0.512-0.070 0.864-0.184 1.297-0.481 0.275-0.188 0.567-0.342 0.861-0.496 0.056-0.030 0.112-0.059 0.17-0.090 0.359-0.185 0.719-0.335 1.099-0.469 0.42-0.15 0.711-0.34 1.038-0.64 1.889-1.716 5.098-2.171 7.493-1.454z"></path>
<path fill="#faddc9" style="fill: var(--color2, #faddc9)" d="M13.5 17.375c0.313 0.205 0.592 0.444 0.875 0.688 0.077 0.065 0.154 0.13 0.231 0.195 0.184 0.156 0.366 0.313 0.548 0.471 0.087 0.075 0.174 0.15 0.261 0.225 0.267 0.231 0.503 0.471 0.732 0.739 0.871 1.016 2.091 1.694 3.345 2.12 0.051 0.017 0.102 0.035 0.155 0.053 0.71 0.226 1.423 0.279 2.165 0.276 0.081 0 0.163 0 0.246 0 0.171 0 0.343-0 0.514-0.001 0.215-0.001 0.429-0 0.644 0 3.030 0.125 3.030 0.125 5.731-0.954 0.191-0.213 0.356-0.434 0.49-0.688 0.632 0.148 1.14 0.446 1.5 1 0.322 0.661 0.524 1.359 0.334 2.095-0.059 0.128-0.124 0.231-0.209 0.343-0.027 0.036-0.055 0.072-0.083 0.109-1.289 1.462-4.156 1.813-5.984 1.986-0.155 0.015-0.309 0.030-0.464 0.046-0.86 0.088-1.707 0.124-2.571 0.113-0.202-0.003-0.405-0.004-0.607-0.005-0.574-0.004-1.148-0.008-1.722-0.015-0.354-0.004-0.708-0.007-1.063-0.008-0.133-0.001-0.267-0.002-0.4-0.004-1.049-0.016-1.841 0.15-2.803 0.585-1.181 0.462-2.421 0.162-3.59-0.181-0.346-0.101-0.694-0.192-1.041-0.285-0.134-0.036-0.267-0.072-0.401-0.109-0.267-0.072-0.534-0.142-0.802-0.21-0.098-0.025-0.098-0.025-0.197-0.051-0.122-0.031-0.245-0.062-0.367-0.093-0.361-0.092-0.705-0.193-1.025-0.389-0.114-0.195-0.104-0.398-0.066-0.613 0.090-0.156 0.090-0.156 0.25-0.25 0.493-0.068 0.935 0.096 1.397 0.247 0.336 0.104 0.57 0.148 0.915 0.065 0-0.144 0-0.289 0-0.438-0.609-0.199-1.227-0.364-1.846-0.528-0.315-0.084-0.629-0.168-0.942-0.258-0.049-0.014-0.097-0.028-0.147-0.042-0.211-0.077-0.316-0.174-0.44-0.359-0.047-0.179-0.050-0.321 0-0.5 0.193-0.236 0.193-0.236 0.375-0.313 0.374 0.025 0.728 0.11 1.090 0.203 0.054 0.014 0.108 0.027 0.164 0.041 0.446 0.114 0.887 0.24 1.328 0.373 0.481 0.165 0.481 0.165 0.981 0.195 0.147-0.119 0.147-0.119 0.133-0.32-0.003-0.059-0.005-0.119-0.008-0.18-0.389-0.133-0.78-0.255-1.176-0.367-0.085-0.024-0.085-0.024-0.172-0.049-0.439-0.124-0.88-0.236-1.323-0.344-0.432-0.107-0.859-0.229-1.286-0.357-0.156-0.047-0.313-0.091-0.47-0.132-0.245-0.077-0.322-0.153-0.448-0.375-0.041-0.248-0.023-0.341 0.117-0.551 0.192-0.197 0.192-0.197 0.369-0.203 0.397 0.031 0.763 0.132 1.142 0.249 0.345 0.106 0.692 0.197 1.043 0.282 0.447 0.109 0.89 0.228 1.332 0.355 0.083 0.024 0.083 0.024 0.167 0.048 0.226 0.065 0.452 0.131 0.678 0.199 0.060 0.018 0.12 0.035 0.182 0.053 0.048 0.015 0.097 0.029 0.146 0.045 0.165 0.027 0.287 0.003 0.447-0.041 0.085-0.070 0.085-0.070 0.066-0.254-0.001-0.061-0.003-0.121-0.004-0.184-0.69-0.243-1.4-0.424-2.106-0.611-0.072-0.019-0.144-0.038-0.219-0.058-0.143-0.038-0.285-0.075-0.428-0.112-0.866-0.229-0.866-0.229-1.118-0.449-0.099-0.216-0.114-0.415-0.066-0.645 0.125-0.188 0.125-0.188 0.313-0.313 0.462-0.044 0.88 0.079 1.324 0.195 0.078 0.020 0.155 0.040 0.235 0.060 0.508 0.131 1.014 0.272 1.518 0.419 0.429 0.124 0.861 0.239 1.294 0.349 0.063 0.016 0.127 0.033 0.192 0.050 0.432 0.112 0.432 0.112 0.874 0.114 0.143-0.115 0.143-0.115 0.133-0.293-0.087-0.257-0.202-0.34-0.407-0.509-0.206-0.172-0.402-0.35-0.596-0.534-0.054-0.048-0.054-0.048-0.11-0.098-0.243-0.233-0.315-0.414-0.342-0.749 0.017-0.22 0.116-0.344 0.26-0.504 0.275-0.165 0.514-0.169 0.813-0.063z"></path>
<path fill="#fadcc9" style="fill: var(--color3, #fadcc9)" d="M18.563 6.063c0.183 0.112 0.279 0.184 0.375 0.375 0.034 0.28 0.029 0.501-0.094 0.758-0.16 0.183-0.327 0.336-0.512 0.493-0.167 0.144-0.328 0.293-0.488 0.445-0.053 0.050-0.107 0.101-0.162 0.153-0.132 0.142-0.132 0.142-0.145 0.319 0.013 0.157 0.013 0.157 0.15 0.27 0.395 0.015 0.787-0.116 1.16-0.23 0.482-0.143 0.965-0.272 1.453-0.391 0.595-0.145 1.182-0.31 1.766-0.492 0.742-0.226 0.742-0.226 1.109-0.054 0.137 0.105 0.137 0.105 0.262 0.293 0.028 0.25 0.033 0.387-0.106 0.601-0.159 0.165-0.245 0.207-0.464 0.267-0.071 0.020-0.143 0.040-0.217 0.060-0.092 0.024-0.184 0.048-0.276 0.072-0.125 0.034-0.25 0.068-0.375 0.102-0.532 0.144-1.065 0.288-1.598 0.427-0.101 0.027-0.202 0.054-0.304 0.081-0.069 0.017-0.069 0.017-0.139 0.035-0.305 0.079-0.305 0.079-0.521 0.293 0.015 0.207 0.015 0.207 0.125 0.375 0.398-0.030 0.771-0.103 1.156-0.203 0.054-0.014 0.109-0.028 0.165-0.042 0.386-0.1 0.769-0.21 1.151-0.325 0.401-0.12 0.806-0.222 1.213-0.321 0.28-0.069 0.558-0.141 0.835-0.222 0.333-0.091 0.595-0.143 0.914 0.020 0.146 0.177 0.166 0.298 0.17 0.525-0.066 0.21-0.186 0.305-0.354 0.444-0.156 0.064-0.295 0.111-0.457 0.152-0.045 0.013-0.091 0.025-0.138 0.038-0.467 0.127-0.938 0.242-1.408 0.357-0.841 0.208-1.672 0.441-2.498 0.702-0.042 0.181-0.042 0.181-0.063 0.375 0.118 0.145 0.118 0.145 0.314 0.143 0.302-0.022 0.566-0.097 0.854-0.186 0.52-0.155 1.041-0.295 1.568-0.422 0.264-0.061 0.264-0.061 0.514-0.16 0.543-0.026 0.543-0.026 0.75 0.125 0.156 0.234 0.154 0.348 0.125 0.625-0.155 0.258-0.299 0.353-0.59 0.429-0.045 0.011-0.090 0.021-0.137 0.032-0.1 0.026-0.2 0.051-0.3 0.077-0.055 0.014-0.11 0.027-0.166 0.041-0.348 0.088-0.694 0.183-1.041 0.276-0.070 0.019-0.14 0.037-0.212 0.056-0.066 0.018-0.133 0.035-0.201 0.054-0.059 0.016-0.118 0.031-0.179 0.048-0.185 0.053-0.367 0.112-0.549 0.174-0.042 0.181-0.042 0.181-0.063 0.375 0.109 0.137 0.109 0.137 0.241 0.132 0.337-0.035 0.656-0.104 0.982-0.195 0.878-0.244 0.878-0.244 1.159-0.137 0.118 0.075 0.118 0.075 0.243 0.262 0.020 0.239 0.032 0.435-0.125 0.625-0.335 0.138-0.672 0.24-1.023 0.328-0.105 0.027-0.21 0.054-0.315 0.081-0.056 0.014-0.112 0.029-0.17 0.044-0.326 0.085-0.651 0.174-0.976 0.262-0.705 0.19-1.41 0.378-2.117 0.559-0.128 0.033-0.256 0.068-0.384 0.104-1.139 0.299-2.144 0.058-3.198-0.411-0.54-0.237-1.038-0.298-1.626-0.291-0.058 0-0.116 0-0.175 0-0.271 0.002-0.536 0.013-0.805 0.043-0.354 0.037-0.705 0.041-1.060 0.042-0.068 0-0.136 0.001-0.206 0.001-0.219 0.001-0.437 0.001-0.656 0-0.112-0-0.112-0-0.226-0-1.088-0.002-2.168-0.013-3.25-0.137-0.109-0.012-0.109-0.012-0.22-0.024-4.864-0.558-4.864-0.558-6.181-2.212-0.297-0.479-0.204-1.123-0.095-1.65 0.203-0.702 0.607-1.195 1.246-1.551 0.062 0 0.124 0 0.188 0 0.049 0.12 0.098 0.24 0.147 0.36 0.277 0.374 0.723 0.512 1.158 0.616 0.051 0.013 0.103 0.026 0.156 0.039 1.655 0.402 3.364 0.496 5.061 0.499 0.192 0.001 0.384 0.003 0.577 0.005 0.941 0.005 1.851-0.051 2.737-0.398 0.048-0.018 0.097-0.037 0.147-0.056 1.441-0.569 2.536-1.449 3.615-2.542 0.312-0.316 0.63-0.611 0.979-0.886 0.244-0.193 0.479-0.396 0.715-0.598 0.372-0.317 0.596-0.417 1.083-0.352z"></path>
<path fill="#2c97d9" style="fill: var(--color4, #2c97d9)" d="M1.313 13.875c0.273 0.105 0.536 0.227 0.801 0.352 0.043 0.020 0.087 0.041 0.131 0.062 0.106 0.050 0.212 0.1 0.318 0.149-0.004 0.083-0.004 0.083-0.009 0.167-0.019 0.64 0.049 1.156 0.454 1.669 0.435 0.458 0.965 0.6 1.574 0.621 0.439 0.025 0.698 0.075 1.018 0.392 0.38 0.443 0.553 1.040 0.542 1.618-0.034 0.312-0.135 0.606-0.232 0.904-0.030 0.097-0.030 0.097-0.062 0.197-0.148 0.468-0.148 0.468-0.223 0.619-0.025 0.367-0.002 0.677 0.188 1 0.23 0.257 0.497 0.424 0.813 0.563-0.031 0.055-0.062 0.111-0.094 0.168-0.148 0.346-0.136 0.714-0.094 1.082 0.171 0.367 0.458 0.623 0.836 0.77 0.054 0.014 0.108 0.028 0.164 0.043-0.117 0.297-0.117 0.297-0.188 0.438-0.045 0.437-0.027 0.831 0.25 1.188 0.22 0.198 0.401 0.295 0.687 0.371 0.073 0.020 0.146 0.040 0.221 0.060 0.078 0.020 0.156 0.041 0.236 0.061 0.082 0.022 0.163 0.044 0.245 0.066 0.565 0.151 1.132 0.293 1.7 0.432 0.467 0.115 0.93 0.243 1.392 0.379 0.152 0.044 0.304 0.088 0.456 0.131 0.058 0.017 0.116 0.034 0.175 0.052 0.473 0.131 0.917 0.17 1.407 0.167 0.074-0 0.148-0.001 0.224-0.001 0.582-0.011 1.035-0.105 1.569-0.343 0.146-0.057 0.291-0.113 0.437-0.168 0.062-0.025 0.124-0.049 0.188-0.075 0.403-0.149 0.746-0.213 1.171-0.208 0.053 0 0.106 0 0.16 0 0.174 0 0.349 0.002 0.523 0.003 0.123 0 0.246 0.001 0.369 0.001 0.324 0.001 0.649 0.002 0.973 0.004 0.576 0.003 1.152 0.005 1.728 0.007 0.092 0 0.092 0 0.186 0.001 0.944 0.003 1.884-0.012 2.827-0.065-0.553 0.563-1.256 0.982-1.938 1.375-0.042 0.024-0.084 0.049-0.127 0.073-2.075 1.181-4.491 1.815-6.877 1.813-0.080-0-0.161-0-0.243-0-0.595-0.004-1.166-0.048-1.753-0.137-0.071-0.007-0.142-0.014-0.215-0.021-1.19-0.121-2.381-0.497-3.472-0.979-0.052-0.023-0.105-0.046-0.159-0.070-1.020-0.456-1.954-1-2.841-1.68-0.051-0.039-0.102-0.078-0.155-0.118-1.462-1.142-2.666-2.528-3.595-4.132-0.022-0.037-0.044-0.074-0.066-0.113-1.2-2.070-1.759-4.453-1.758-6.833-0-0.042-0-0.085-0-0.129 0-0.65 0.030-1.284 0.137-1.926z"></path>
<path fill="#51a3e1" style="fill: var(--color5, #51a3e1)" d="M17.469 2.141c0.042 0.006 0.084 0.013 0.127 0.019 2.801 0.436 5.203 1.716 7.342 3.527-0.068 0.381-0.365 0.591-0.666 0.806-0.796 0.519-0.796 0.519-1.322 0.498-0.504-0.011-0.935 0.128-1.412 0.273-0.298 0.088-0.599 0.165-0.9 0.243-0.061 0.016-0.122 0.032-0.185 0.048-0.441 0.114-0.882 0.222-1.327 0.319 0.026-0.039 0.053-0.078 0.080-0.119 0.034-0.051 0.068-0.102 0.104-0.155 0.034-0.051 0.068-0.101 0.103-0.154 0.156-0.24 0.163-0.395 0.166-0.682 0.002-0.076 0.003-0.151 0.005-0.229-0.027-0.293-0.114-0.494-0.311-0.713-0.036-0.029-0.071-0.059-0.108-0.089-0.035-0.030-0.071-0.060-0.107-0.091-0.384-0.26-0.795-0.256-1.245-0.206-0.2 0.068-0.339 0.177-0.5 0.313-0.062 0.051-0.123 0.102-0.187 0.154-0.141 0.117-0.28 0.236-0.419 0.356-0.184 0.159-0.372 0.313-0.562 0.466-0.622 0.508-0.622 0.508-1.176 1.086-0.823 0.967-2.195 1.934-3.469 2.188-0.093-0.031-0.093-0.031-0.188-0.063 0.040-0.058 0.080-0.116 0.121-0.176 0.19-0.294 0.225-0.542 0.191-0.887-0.204-0.671-0.806-1.163-1.386-1.521-0.543-0.345-0.734-0.99-0.958-1.564-0.21-0.507-0.453-0.809-0.961-1.031-0.311-0.116-0.619-0.198-0.945-0.258 1.274-1.419 3.898-2.044 5.699-2.355 0.065-0.011 0.065-0.011 0.13-0.023 1.404-0.227 2.862-0.198 4.264 0.019z"></path>
<path fill="#d8fafe" style="fill: var(--color6, #d8fafe)" d="M23.5 3.688c2.579 0.056 4.556 0.686 6.416 2.541 1.532 1.613 2.143 3.736 2.101 5.915-0.034 1.021-0.3 1.944-0.721 2.872-0.274 0.625-0.298 1.174-0.056 1.812 0.061 0.143 0.125 0.285 0.189 0.426 0.411 0.938 0.582 1.857 0.582 2.882 0 0.129 0.001 0.258 0.002 0.387 0.002 0.484-0.029 0.942-0.139 1.415-0.119-0.179-0.205-0.353-0.297-0.547-0.41-0.817-1.035-1.217-1.891-1.516 0.081-0.564 0.18-1.125 0.287-1.685 0.132-0.704 0.168-1.397 0.17-2.112 0-0.046 0-0.092 0-0.14 0-1.303-0.132-2.627-0.52-3.876-0.015-0.049-0.029-0.098-0.045-0.148-0.852-2.796-2.512-5.418-4.83-7.227-0.034-0.026-0.067-0.053-0.102-0.080-0.322-0.251-0.645-0.502-0.98-0.736-0.055-0.040-0.111-0.080-0.168-0.121 0-0.021 0-0.041 0-0.063z"></path>
<path fill="#b7e087" style="fill: var(--color7, #b7e087)" d="M25.438 6.25c0.291 0.239 0.553 0.486 0.797 0.773 0.032 0.038 0.064 0.075 0.097 0.114 1.128 1.352 1.977 2.95 2.544 4.613 0.022 0.064 0.044 0.129 0.067 0.195 0.313 0.996 0.486 2.077 0.558 3.117 0.007 0.093 0.007 0.093 0.015 0.189 0.087 1.267 0.087 1.267-0.137 1.606-0.158 0.169-0.324 0.31-0.503 0.455-0.097 0.113-0.191 0.229-0.281 0.348-0.31 0.397-0.31 0.397-0.496 0.426-0.16-0.023-0.16-0.023-0.258-0.131-0.095-0.152-0.136-0.276-0.176-0.45-0.015-0.059-0.029-0.118-0.044-0.179-0.029-0.123-0.058-0.245-0.086-0.368-0.13-0.52-0.336-0.898-0.782-1.208-0.303-0.157-0.612-0.147-0.945-0.149-0.307-0.010-0.464-0.069-0.68-0.288-0.037-0.059-0.075-0.119-0.113-0.18-0.176-0.251-0.388-0.397-0.637-0.57-0.084-0.062-0.167-0.125-0.25-0.188 0.010-0.039 0.021-0.077 0.031-0.117 0.074-0.465 0.063-0.837-0.156-1.258 0.037-0.018 0.074-0.036 0.112-0.055 0.414-0.215 0.703-0.439 0.888-0.882 0.062-0.464-0.010-0.79-0.25-1.188 0.090-0.040 0.18-0.081 0.27-0.121 0.050-0.022 0.1-0.045 0.152-0.068 0.141-0.061 0.141-0.061 0.329-0.123 0.071-0.111 0.071-0.111 0.125-0.25 0.021-0.047 0.043-0.094 0.065-0.142 0.117-0.331 0.123-0.721 0.017-1.058-0.151-0.291-0.383-0.484-0.694-0.588-0.178-0.033-0.348-0.031-0.528-0.029-0.067 0.001-0.135 0.001-0.204 0.002-0.077 0.001-0.077 0.001-0.155 0.002-0.008-0.050-0.015-0.101-0.023-0.153-0.010-0.067-0.021-0.134-0.032-0.202-0.010-0.066-0.020-0.132-0.031-0.2-0.037-0.182-0.090-0.338-0.165-0.507 0.042-0.021 0.085-0.043 0.128-0.064 0.559-0.291 1.050-0.618 1.434-1.123z"></path>
<path fill="#51a3e0" style="fill: var(--color8, #51a3e0)" d="M23.875 15c0.305 0.165 0.523 0.396 0.742 0.66 0.254 0.292 0.506 0.484 0.883 0.59 0.211 0.010 0.418 0.004 0.63-0.003 0.183 0.003 0.183 0.003 0.406 0.089 0.36 0.387 0.448 0.928 0.554 1.432 0.081 0.359 0.209 0.633 0.512 0.849 0.357 0.119 0.684 0.137 1.031-0.016 0.26-0.237 0.469-0.508 0.68-0.789 0.064 0.193 0.063 0.251 0.025 0.442-0.015 0.076-0.015 0.076-0.030 0.153-0.059 0.282-0.119 0.563-0.183 0.843-0.011 0.050-0.022 0.101-0.034 0.153-0.139 0.611-0.306 1.152-0.841 1.535-0.42 0.212-0.833 0.301-1.297 0.352-0.062 0.007-0.124 0.015-0.188 0.022-0.192 0.022-0.385 0.043-0.577 0.064-0.058 0.006-0.117 0.013-0.177 0.019-1.218 0.128-2.436 0.174-3.661 0.179-0.1 0-0.2 0.001-0.3 0.002-0.141 0.001-0.281 0.001-0.422 0.001-0.082 0-0.164 0-0.248 0.001-0.192-0.015-0.192-0.015-0.317-0.14 0.031-0.024 0.062-0.047 0.094-0.072 1.091-0.884 1.623-2.71 1.77-4.070 0.013-0.2 0.011-0.396 0.006-0.596-0.002-0.075-0.003-0.151-0.005-0.229-0.004-0.156-0.009-0.313-0.015-0.469-0.011-0.638-0.011-0.638 0.174-0.865 0.265-0.224 0.458-0.23 0.788-0.137z"></path>
<path fill="#b7e187" style="fill: var(--color9, #b7e187)" d="M7 5.063c0.064 0.012 0.128 0.023 0.194 0.035 0.641 0.13 1.114 0.29 1.493 0.84 0.112 0.226 0.201 0.459 0.289 0.695 0.206 0.546 0.363 0.91 0.875 1.227 0.429 0.277 0.862 0.586 1.148 1.016 0.035 0.266-0.001 0.43-0.162 0.647-0.605 0.71-0.605 0.71-1.053 0.745-0.087 0.001-0.174 0.002-0.261 0.002-0.047 0-0.095 0.001-0.144 0.001-0.157 0.001-0.313 0-0.47-0-0.054-0-0.108-0-0.163-0-4.19-0.015-4.19-0.015-5.809-0.769-0.021-0.041-0.041-0.082-0.063-0.125 0.071-0.154 0.146-0.298 0.23-0.445 0.038-0.067 0.038-0.067 0.077-0.135 0.294-0.504 0.642-0.964 1.005-1.42 0.028-0.035 0.056-0.070 0.084-0.107 0.488-0.612 1.036-1.167 1.603-1.706 0.032-0.031 0.064-0.061 0.098-0.093 0.322-0.301 0.572-0.501 1.027-0.407z"></path>
<path fill="#b6e087" style="fill: var(--color10, #b6e087)" d="M3.188 14.688c0.111 0.023 0.221 0.047 0.332 0.070 0.12 0.025 0.12 0.025 0.242 0.051 0.228 0.049 0.455 0.102 0.682 0.155 0.933 0.218 1.853 0.382 2.806 0.473 0.060 0.006 0.121 0.012 0.183 0.018 0.794 0.078 1.583 0.109 2.381 0.115 0.072 0.001 0.145 0.001 0.219 0.002 0.367 0.003 0.733 0.005 1.1 0.003 0.137 0.001 0.275 0.002 0.412 0.003 0.094-0.001 0.094-0.001 0.19-0.003 0.458 0.006 0.723 0.139 1.077 0.424 0.059 0.044 0.119 0.088 0.18 0.133 0.129 0.114 0.228 0.221 0.32 0.367 0 0.041 0 0.082 0 0.125-0.045 0.006-0.091 0.012-0.137 0.019-0.569 0.088-0.897 0.267-1.238 0.731-0.169 0.289-0.172 0.612-0.125 0.938 0.12 0.324 0.288 0.603 0.5 0.875-0.638-0.143-1.271-0.303-1.902-0.473-0.068-0.018-0.136-0.037-0.206-0.055-0.307-0.083-0.612-0.169-0.915-0.265-0.409-0.124-0.847-0.177-1.256-0.025-0.274 0.158-0.459 0.341-0.596 0.63-0.055 0.249-0.094 0.497-0.125 0.75-0.227-0.021-0.454-0.041-0.688-0.063 0.031-0.153 0.031-0.153 0.063-0.309 0.139-0.799 0.009-1.566-0.43-2.262-0.284-0.381-0.61-0.661-1.070-0.805-0.241-0.024-0.241-0.024-0.488-0.023-0.523-0.018-0.918-0.133-1.293-0.508-0.224-0.373-0.234-0.665-0.219-1.094z"></path>
<path fill="#51a2e0" style="fill: var(--color11, #51a2e0)" d="M24.375 26.75c-0.544 0.571-1.263 0.976-1.938 1.375-0.070 0.044-0.139 0.088-0.211 0.134-0.662 0.402-1.343 0.512-2.101 0.616-0.070 0.011-0.141 0.022-0.213 0.033-0.608 0.091-1.201 0.114-1.814 0.111-0.074-0-0.074-0-0.149-0-2.382-0.010-4.561-0.615-6.687-1.66-0.042-0.021-0.085-0.041-0.128-0.062-0.2-0.1-0.356-0.196-0.509-0.36 0.357 0.062 0.703 0.145 1.051 0.247 1.377 0.398 2.776 0.672 4.137 0.066 0.146-0.057 0.291-0.113 0.438-0.168 0.062-0.025 0.124-0.049 0.188-0.075 0.406-0.151 0.752-0.212 1.181-0.208 0.054 0 0.108 0 0.163 0 0.177 0 0.355 0.002 0.532 0.003 0.125 0 0.249 0.001 0.373 0.001 0.328 0.001 0.655 0.002 0.983 0.004 0.522 0.003 1.045 0.005 1.567 0.006 0.181 0.001 0.362 0.002 0.543 0.003 0.589 0.003 1.173-0.008 1.761-0.052 0.278-0.019 0.555-0.020 0.834-0.014z"></path>
<path fill="#b7e087" style="fill: var(--color7, #b7e087)" d="M22.25 15.25c0.212 1.752-0.038 3.701-1.063 5.188-0.282 0.355-0.622 0.635-1.079 0.711-0.336 0.018-0.604-0.047-0.859-0.274-0.255-0.335-0.319-0.649-0.323-1.060-0.021-1.198-0.128-2.12-0.701-3.182-0.101-0.196-0.101-0.196-0.101-0.321 0.035-0.009 0.071-0.018 0.107-0.027 0.716-0.184 1.431-0.373 2.143-0.574 0.929-0.262 0.929-0.262 1.305-0.363 0.106-0.029 0.106-0.029 0.214-0.058 0.168-0.039 0.168-0.039 0.356-0.039z"></path>
<path fill="#d8f9fd" style="fill: var(--color12, #d8f9fd)" d="M0.5 17.438c0.041 0.021 0.083 0.041 0.125 0.063 0.027 0.112 0.027 0.112 0.044 0.258 0.010 0.081 0.010 0.081 0.020 0.163 0.007 0.058 0.014 0.116 0.021 0.177 0.374 2.793 1.614 5.515 3.54 7.581 0.112 0.121 0.218 0.245 0.324 0.372 0.665 0.758 1.491 1.488 2.363 1.996 0.041 0.026 0.083 0.052 0.125 0.079 0 0.041 0 0.082 0 0.125-2.199-0.278-4.031-1.254-5.438-3-1.332-1.779-1.85-3.929-1.593-6.128 0.085-0.582 0.266-1.134 0.469-1.684z"></path>
<path fill="#f6caad" style="fill: var(--color13, #f6caad)" d="M13.5 17.375c0.312 0.205 0.592 0.444 0.875 0.688 0.077 0.065 0.154 0.13 0.231 0.195 0.184 0.156 0.366 0.313 0.548 0.471 0.087 0.075 0.174 0.15 0.261 0.225 0.267 0.231 0.503 0.471 0.732 0.739 0.871 1.016 2.091 1.694 3.345 2.12 0.051 0.017 0.102 0.035 0.155 0.053 0.71 0.226 1.423 0.279 2.165 0.276 0.081 0 0.163 0 0.246 0 0.171 0 0.343-0 0.514-0.001 0.215-0.001 0.429-0 0.644 0 3.030 0.125 3.030 0.125 5.731-0.954 0.191-0.213 0.356-0.434 0.49-0.688 0.309 0.093 0.309 0.093 0.625 0.188-0.118 0.592-0.591 1.019-1.063 1.375-1.005 0.661-2.342 0.655-3.5 0.75-0.059 0.005-0.118 0.010-0.179 0.016-0.503 0.042-1.003 0.058-1.508 0.059-0.081 0-0.162 0.001-0.245 0.001-0.17 0.001-0.34 0.001-0.51 0.001-0.172 0-0.343 0.001-0.515 0.003-2.356 0.019-2.356 0.019-3.454-0.432-0.055-0.022-0.109-0.043-0.165-0.066-1.495-0.609-2.947-1.593-3.972-2.856-0.258-0.307-0.578-0.541-0.891-0.789-0.113-0.095-0.227-0.19-0.34-0.285-0.305-0.251-0.622-0.462-0.958-0.669-0.046-0.036-0.092-0.071-0.14-0.108 0-0.062 0-0.124 0-0.188 0.265-0.24 0.553-0.246 0.875-0.125z"></path>
<path fill="#f6cbad" style="fill: var(--color14, #f6cbad)" d="M18.246 6.039c0.080-0.003 0.080-0.003 0.162-0.005 0.201 0.037 0.275 0.126 0.405 0.279-0.081 0.062-0.081 0.062-0.163 0.126-0.445 0.347-0.882 0.7-1.311 1.068-0.121 0.104-0.244 0.205-0.369 0.304-0.424 0.338-0.804 0.702-1.181 1.092-0.467 0.474-0.925 0.912-1.477 1.285-0.061 0.043-0.123 0.086-0.186 0.13-2.878 1.903-7.034 1.516-10.266 0.889-0.649-0.134-1.201-0.318-1.781-0.642-0.075-0.042-0.15-0.083-0.224-0.125-0.103-0.057-0.205-0.117-0.307-0.176-0.165-0.091-0.165-0.091-0.322-0.057-0.050 0.021-0.050 0.021-0.102 0.043 0.086-0.274 0.202-0.402 0.426-0.578 0.053-0.043 0.107-0.086 0.161-0.13 0.165-0.106 0.283-0.143 0.475-0.167 0.049 0.12 0.098 0.24 0.147 0.36 0.277 0.374 0.723 0.512 1.158 0.616 0.051 0.013 0.103 0.026 0.156 0.039 1.655 0.402 3.364 0.496 5.061 0.499 0.192 0.001 0.384 0.003 0.577 0.005 0.941 0.005 1.851-0.051 2.737-0.398 0.048-0.018 0.097-0.037 0.147-0.056 1.441-0.569 2.536-1.449 3.615-2.542 0.312-0.316 0.63-0.611 0.979-0.886 0.244-0.193 0.479-0.396 0.715-0.598 0.434-0.37 0.434-0.37 0.766-0.375z"></path>
<path fill="#d7f9fd" style="fill: var(--color15, #d7f9fd)" d="M22.375 28.875c0.062 0.031 0.062 0.031 0.125 0.063-1.124 1.36-2.469 2.342-4.188 2.813-0.064 0.018-0.064 0.018-0.128 0.037-1.397 0.39-3.107 0.374-4.497-0.037-0.045-0.013-0.089-0.025-0.135-0.039-1.059-0.311-2.475-0.889-3.115-1.836 0.158 0.036 0.315 0.073 0.473 0.109 0.048 0.011 0.097 0.022 0.146 0.034 0.304 0.071 0.604 0.151 0.904 0.235 0.358 0.097 0.715 0.168 1.082 0.227 0.047 0.007 0.093 0.015 0.142 0.023 2.925 0.44 6.671 0.052 9.19-1.628z"></path>
<path fill="#d8f9fd" style="fill: var(--color12, #d8f9fd)" d="M18.313 0.25c0.046 0.014 0.092 0.027 0.14 0.042 1.236 0.379 2.301 0.999 3.235 1.896 0.047 0.044 0.093 0.088 0.141 0.133 0.239 0.232 0.438 0.456 0.609 0.742-0.251-0.077-0.485-0.173-0.722-0.285-1.98-0.928-4.144-1.417-6.329-1.41-0.073-0-0.146-0-0.221-0.001-0.808 0.001-1.593 0.063-2.388 0.208-0.113 0.020-0.113 0.020-0.227 0.041-0.542 0.101-1.068 0.232-1.593 0.398-0.050 0.016-0.099 0.031-0.15 0.047-0.043 0.014-0.086 0.028-0.13 0.043-0.114 0.022-0.114 0.022-0.302-0.040 2.151-1.846 5.172-2.64 7.938-1.813z"></path>
<path fill="#51a2df" style="fill: var(--color16, #51a2df)" d="M13.313 15.5c0.922-0.046 1.631 0.163 2.476 0.538 0.411 0.169 0.819 0.275 1.262 0.278 0.186 0.017 0.247 0.044 0.383 0.177 0.683 0.933 0.843 1.93 0.86 3.053 0.002 0.099 0.004 0.198 0.006 0.297 0.005 0.24 0.009 0.479 0.013 0.719-0.309-0.144-0.578-0.294-0.84-0.516-0.058-0.049-0.116-0.098-0.177-0.149-0.056-0.049-0.113-0.098-0.171-0.148-0.051-0.043-0.101-0.086-0.154-0.13-0.271-0.234-0.511-0.478-0.743-0.75-0.291-0.338-0.612-0.619-0.963-0.894-0.038-0.030-0.075-0.059-0.114-0.090-0.179-0.14-0.359-0.277-0.544-0.409-0.509-0.378-0.509-0.378-0.564-0.728-0.005-0.052-0.010-0.104-0.016-0.157-0.074-0.419-0.442-0.78-0.715-1.093z"></path>
<path fill="#d8f9fd" style="fill: var(--color12, #d8f9fd)" d="M7 3.813c-0.208 0.217-0.42 0.399-0.664 0.574-0.328 0.242-0.63 0.502-0.929 0.781-0.13 0.12-0.263 0.235-0.399 0.348-0.766 0.671-1.463 1.494-1.978 2.372-0.418 0.705-0.418 0.705-0.87 0.831-0.103 0.022-0.103 0.022-0.208 0.044-0.579 0.142-1.054 0.571-1.39 1.050-0.246 0.433-0.385 0.893-0.5 1.375-0.021 0-0.041 0-0.063 0 0.030-1.675 0.728-3.357 1.813-4.625 0.042-0.050 0.084-0.1 0.128-0.151 1.193-1.366 3.152-2.702 5.060-2.599z"></path>
<path fill="#51a2e0" style="fill: var(--color11, #51a2e0)" d="M3.75 16.813c0.21 0.014 0.419 0.030 0.629 0.047 0.059 0.004 0.118 0.008 0.179 0.012 0.437 0.037 0.727 0.121 1.058 0.422 0.385 0.507 0.577 1.135 0.509 1.77-0.058 0.253-0.134 0.499-0.215 0.746-0.020 0.065-0.041 0.13-0.062 0.197-0.148 0.468-0.148 0.468-0.223 0.619-0.025 0.367-0.002 0.677 0.188 1 0.24 0.269 0.486 0.399 0.813 0.563-0.103 0.289-0.206 0.578-0.313 0.875-1.085-1.356-1.765-2.905-2.25-4.563-0.036-0.113-0.036-0.113-0.072-0.228-0.151-0.488-0.223-0.949-0.24-1.46z"></path>
<path fill="#d6f8fc" style="fill: var(--color17, #d6f8fc)" d="M30 25.438c0.062 0.031 0.062 0.031 0.125 0.063-0.871 1.070-1.963 1.827-3.25 2.313-0.065 0.025-0.13 0.050-0.197 0.075-1.002 0.344-2.066 0.394-3.115 0.362 0.199-0.214 0.421-0.375 0.66-0.539 0.362-0.253 0.687-0.524 1.008-0.828 0.259-0.239 0.42-0.343 0.776-0.392 0.076-0.011 0.152-0.022 0.231-0.034 0.081-0.012 0.163-0.023 0.247-0.035 1.112-0.169 2.182-0.453 3.226-0.879 0.095-0.038 0.193-0.073 0.29-0.106z"></path>
<path fill="#9fd957" style="fill: var(--color18, #9fd957)" d="M7 5.063c0.072 0.010 0.144 0.021 0.219 0.031 0.052 0.010 0.103 0.021 0.156 0.031-0.035 0.013-0.069 0.025-0.105 0.038-0.202 0.121-0.325 0.293-0.465 0.478-0.030 0.039-0.060 0.078-0.091 0.118-0.093 0.122-0.185 0.244-0.276 0.366-0.027 0.036-0.055 0.072-0.083 0.109-0.838 1.104-1.444 2.368-1.98 3.641-0.498-0.066-0.981-0.156-1.438-0.375-0.021-0.041-0.041-0.082-0.063-0.125 0.071-0.154 0.146-0.298 0.23-0.445 0.038-0.067 0.038-0.067 0.077-0.135 0.294-0.504 0.642-0.964 1.005-1.42 0.028-0.035 0.056-0.070 0.084-0.107 0.488-0.612 1.036-1.167 1.603-1.706 0.032-0.031 0.064-0.061 0.098-0.093 0.342-0.319 0.555-0.478 1.027-0.407z"></path>
<path fill="#323232" style="fill: var(--color19, #323232)" d="M3.313 1.688c0.079 0.158 0.069 0.27 0.066 0.445-0.001 0.057-0.001 0.114-0.002 0.172-0.001 0.044-0.001 0.087-0.002 0.132 0.064-0.003 0.064-0.003 0.13-0.007 0.056-0.002 0.113-0.003 0.171-0.005 0.084-0.003 0.084-0.003 0.169-0.007 0.155 0.018 0.155 0.018 0.268 0.099 0.125 0.178 0.098 0.336 0.075 0.544-0.207 0.138-0.272 0.139-0.512 0.133-0.056-0.001-0.113-0.002-0.171-0.003-0.043-0.001-0.086-0.003-0.13-0.004 0.003 0.072 0.003 0.072 0.007 0.146 0.002 0.063 0.003 0.125 0.005 0.19 0.003 0.094 0.003 0.094 0.007 0.189-0.006 0.054-0.012 0.107-0.018 0.163-0.217 0.145-0.307 0.157-0.563 0.125-0.117-0.090-0.117-0.090-0.188-0.25-0.015-0.189-0.011-0.374 0-0.563-0.043 0.003-0.086 0.006-0.13 0.009-0.084 0.003-0.084 0.003-0.171 0.007-0.056 0.003-0.112 0.006-0.169 0.009-0.155-0.024-0.155-0.024-0.27-0.138-0.073-0.136-0.073-0.136-0.065-0.332 0.055-0.18 0.055-0.18 0.242-0.305 0.141-0.012 0.141-0.012 0.293-0.008 0.076 0.002 0.076 0.002 0.153 0.003 0.058 0.002 0.058 0.002 0.116 0.004-0.003-0.077-0.005-0.155-0.008-0.234 0-0.203 0.010-0.346 0.133-0.516 0.195-0.097 0.354-0.042 0.563 0z"></path>
<path fill="#323232" style="fill: var(--color19, #323232)" d="M29.188 27.75c0.172 0.184 0.198 0.339 0.199 0.582-0.006 0.114-0.006 0.114-0.012 0.23 0.057-0.004 0.057-0.004 0.114-0.009 0.405-0.018 0.405-0.018 0.612 0.11 0.086 0.148 0.086 0.148 0.082 0.344-0.059 0.18-0.059 0.18-0.246 0.305-0.141 0.012-0.141 0.012-0.293 0.008-0.050-0.001-0.101-0.002-0.153-0.003-0.038-0.001-0.077-0.003-0.116-0.004 0.003 0.077 0.005 0.155 0.008 0.234-0.003 0.375-0.003 0.375-0.133 0.516-0.215 0.059-0.215 0.059-0.438 0.063-0.107-0.073-0.107-0.073-0.188-0.188-0.018-0.155-0.018-0.155-0.012-0.324 0.002-0.056 0.003-0.113 0.005-0.171 0.002-0.043 0.004-0.086 0.007-0.13-0.064 0.003-0.064 0.003-0.13 0.007-0.056 0.002-0.113 0.003-0.171 0.005-0.084 0.003-0.084 0.003-0.169 0.007-0.155-0.018-0.155-0.018-0.268-0.099-0.125-0.178-0.098-0.336-0.075-0.544 0.207-0.138 0.272-0.139 0.512-0.133 0.056 0.001 0.113 0.002 0.171 0.003 0.043 0.001 0.086 0.003 0.13 0.004-0.002-0.048-0.004-0.096-0.007-0.146-0.002-0.063-0.003-0.125-0.005-0.19-0.002-0.062-0.004-0.125-0.007-0.189 0.009-0.081 0.009-0.081 0.018-0.163 0.217-0.145 0.307-0.162 0.563-0.125z"></path>
<path fill="#d4f5f9" style="fill: var(--color20, #d4f5f9)" d="M0 12.313c0.136 0.136 0.192 0.252 0.273 0.426 0.092 0.191 0.165 0.326 0.309 0.484 0.161 0.232 0.128 0.441 0.105 0.715-0.005 0.078-0.005 0.078-0.010 0.157-0.033 0.386-0.033 0.386-0.177 0.531-0.511-1.537-0.511-1.537-0.5-2.313z"></path>
<path fill="#9ad056" style="fill: var(--color21, #9ad056)" d="M3.188 14.688c0.144 0.021 0.289 0.041 0.438 0.063 0 0.392 0 0.784 0 1.188-0.352-0.352-0.443-0.48-0.445-0.957 0.002-0.098 0.004-0.195 0.008-0.293z"></path>
<path fill="#2d92d2" style="fill: var(--color22, #2d92d2)" d="M8.563 3.75c-0.070 0.211-0.134 0.265-0.301 0.406-0.043 0.037-0.086 0.073-0.13 0.111-0.043 0.035-0.087 0.071-0.132 0.107-0.042 0.036-0.085 0.072-0.129 0.109-0.121 0.079-0.121 0.079-0.324 0.059-0.057-0.014-0.113-0.028-0.172-0.043 0.197-0.215 0.416-0.366 0.664-0.516 0.037-0.023 0.073-0.045 0.111-0.069 0.271-0.166 0.271-0.166 0.413-0.166z"></path>
</symbol>
<symbol id="icon-moon" viewBox="0 0 32 32">
<path fill="#6a6d68" style="fill: var(--color23, #6a6d68)" opacity="0.9" d="M25.809 23.822c-0.503 0.632-1.059 1.208-1.659 1.721-0.142 0.121-0.286 0.239-0.433 0.352-0.016 0.013-0.033 0.026-0.049 0.039-0.006 0.004-0.012 0.008-0.017 0.012-0.374 0.288-0.762 0.552-1.165 0.793-0.12 0.072-0.241 0.142-0.363 0.211-1.134 0.629-2.364 1.076-3.651 1.323-0.767 0.146-1.554 0.222-2.354 0.222-1.745 0-3.434-0.359-5.020-1.065-0.484-0.216-0.956-0.464-1.404-0.738-0.435-0.265-0.861-0.563-1.265-0.884-0.33-0.262-0.644-0.539-0.942-0.828-0.081-0.079-0.161-0.159-0.239-0.239-1.902-1.951-3.098-4.461-3.413-7.211-0.284-2.484 0.177-4.94 1.309-7.109 0.312-0.598 0.676-1.174 1.088-1.723 0.013-0.016 0.025-0.033 0.037-0.049 0.056-0.074 0.113-0.147 0.171-0.221 2.361-2.97 5.893-4.674 9.692-4.674 2.819 0 5.478 0.929 7.689 2.687 0.096 0.076 0.181 0.146 0.259 0.212 0.198 0.165 0.393 0.339 0.594 0.531 0.031 0.029 0.062 0.059 0.092 0.089 0.081 0.078 0.161 0.159 0.24 0.239 2.026 2.084 3.249 4.813 3.457 7.734 0.221 3.097-0.722 6.142-2.655 8.574z"></path>
<path fill="#a3aaa0" style="fill: var(--color24, #a3aaa0)" d="M25.559 23.572c-0.503 0.632-1.059 1.208-1.659 1.721-0.142 0.121-0.286 0.239-0.433 0.352-0.016 0.013-0.033 0.026-0.049 0.039-0.006 0.004-0.012 0.008-0.017 0.012-0.374 0.288-0.762 0.552-1.165 0.793-0.12 0.072-0.241 0.142-0.363 0.211-1.235 0.685-2.585 1.154-3.999 1.384-0.657 0.106-1.327 0.161-2.006 0.161-1.745 0-3.434-0.359-5.020-1.065-0.484-0.216-0.956-0.464-1.404-0.738-0.435-0.265-0.861-0.563-1.265-0.884-0.326-0.259-0.636-0.532-0.931-0.817-0.004-0.003-0.008-0.007-0.011-0.011-2.040-1.983-3.324-4.586-3.651-7.451-0.284-2.484 0.177-4.94 1.309-7.109 0.312-0.598 0.676-1.174 1.088-1.723 0.068-0.091 0.138-0.181 0.209-0.27 0.034-0.043 0.069-0.086 0.103-0.128 2.36-2.891 5.845-4.546 9.589-4.546 2.819 0 5.478 0.929 7.689 2.687 0.096 0.076 0.181 0.146 0.259 0.212 0.198 0.165 0.393 0.339 0.594 0.531 0.113 0.107 0.224 0.218 0.332 0.329 0.003 0.004 0.007 0.007 0.010 0.011 2.020 2.083 3.239 4.808 3.447 7.724 0.221 3.097-0.722 6.142-2.655 8.574z"></path>
<path fill="#666865" style="fill: var(--color25, #666865)" d="M20.594 9.75c0 1.536-1.245 2.781-2.781 2.781s-2.781-1.245-2.781-2.781c0-1.536 1.245-2.781 2.781-2.781s2.781 1.245 2.781 2.781z"></path>
<path fill="#666865" style="fill: var(--color25, #666865)" d="M25.406 18.75c0 0.742-0.602 1.344-1.344 1.344s-1.344-0.602-1.344-1.344c0-0.742 0.602-1.344 1.344-1.344s1.344 0.602 1.344 1.344z"></path>
<path fill="#666865" style="fill: var(--color25, #666865)" d="M12.115 18.531c0 0.961-0.779 1.74-1.74 1.74s-1.74-0.779-1.74-1.74c0-0.961 0.779-1.74 1.74-1.74s1.74 0.779 1.74 1.74z"></path>
<path fill="#666865" style="fill: var(--color25, #666865)" d="M17.25 17.047c0 0.509-0.413 0.922-0.922 0.922s-0.922-0.413-0.922-0.922c0-0.509 0.413-0.922 0.922-0.922s0.922 0.413 0.922 0.922z"></path>
<path fill="#666865" style="fill: var(--color25, #666865)" d="M11.219 11.5c0 0.966-0.784 1.75-1.75 1.75s-1.75-0.784-1.75-1.75c0-0.966 0.784-1.75 1.75-1.75s1.75 0.784 1.75 1.75z"></path>
<path fill="#666865" style="fill: var(--color25, #666865)" d="M20.313 23.906c0 0.949-0.77 1.719-1.719 1.719s-1.719-0.77-1.719-1.719c0-0.949 0.77-1.719 1.719-1.719s1.719 0.77 1.719 1.719z"></path>
<path fill="#666865" style="fill: var(--color25, #666865)" d="M25.844 13.313c0 0.639-0.518 1.156-1.156 1.156s-1.156-0.518-1.156-1.156c0-0.639 0.518-1.156 1.156-1.156s1.156 0.518 1.156 1.156z"></path>
<path fill="#666865" style="fill: var(--color25, #666865)" d="M20.313 13.5c0 0.276-0.224 0.5-0.5 0.5s-0.5-0.224-0.5-0.5c0-0.276 0.224-0.5 0.5-0.5s0.5 0.224 0.5 0.5z"></path>
<path fill="#666865" style="fill: var(--color25, #666865)" opacity="0.2" d="M18.722 28.149c-0.767 0.146-1.554 0.222-2.354 0.222-1.745 0-3.434-0.359-5.020-1.065-0.484-0.216-0.956-0.464-1.404-0.738-0.435-0.265-0.861-0.563-1.265-0.884-0.33-0.262-0.644-0.539-0.942-0.828-0.081-0.079-0.161-0.159-0.239-0.239-0.004-0.003-0.008-0.007-0.011-0.011-2.040-1.983-3.324-4.586-3.651-7.451-0.284-2.484 0.177-4.94 1.309-7.109 0.312-0.598 0.676-1.174 1.088-1.723 0.068-0.091 0.138-0.181 0.209-0.27 0.034-0.043 0.069-0.086 0.103-0.128-0.010 0.188-0.018 0.388-0.024 0.599-0.149 4.947 0.811 15.839 11.604 19.436 0.196 0.066 0.395 0.129 0.597 0.189z"></path>
</symbol>
<symbol id="icon-sun" viewBox="0 0 32 32">
<path fill="#000" style="fill: var(--color26, #000)" d="M14.707 31.889c-0.033 0-0.066-0.004-0.099-0.013-0.169-0.046-0.283-0.202-0.276-0.375l0.029-0.834c0.003-0.098 0.011-0.198 0.019-0.298 0.016-0.186 0.031-0.361 0.004-0.507-0.055-0.306-0.105-0.613-0.154-0.923-0.141-0.891-0.274-1.731-0.565-2.542-0.016-0.043-0.031-0.087-0.046-0.13-0.447 1.6-1.83 2.9-3.168 4.157l-0.215 0.204c-0.128 0.118-0.32 0.137-0.465 0.039-0.146-0.096-0.206-0.279-0.147-0.443l0.286-0.784c0.033-0.094 0.071-0.186 0.111-0.278 0.071-0.171 0.14-0.334 0.16-0.48 0.042-0.307 0.091-0.614 0.139-0.923 0.141-0.892 0.274-1.734 0.247-2.595-0.001-0.045-0.002-0.092-0.003-0.137-0.919 1.381-2.634 2.189-4.291 2.971l-0.273 0.129c-0.159 0.073-0.346 0.031-0.454-0.105-0.109-0.137-0.11-0.329-0.002-0.466l0.514-0.659c0.061-0.078 0.125-0.153 0.19-0.227 0.122-0.142 0.237-0.275 0.301-0.409 0.134-0.281 0.276-0.557 0.417-0.834 0.41-0.805 0.797-1.565 1.038-2.391 0.013-0.044 0.026-0.089 0.039-0.131-1.303 1.031-3.187 1.269-5.009 1.501l-0.291 0.036c-0.175 0.023-0.338-0.078-0.4-0.239-0.062-0.163-0.003-0.348 0.141-0.445l0.692-0.468c0.081-0.054 0.166-0.107 0.252-0.159 0.159-0.097 0.309-0.188 0.412-0.294 0.214-0.225 0.435-0.445 0.655-0.666 0.638-0.638 1.241-1.241 1.724-1.953 0.027-0.037 0.053-0.076 0.080-0.113-1.558 0.576-3.425 0.225-5.23-0.119l-0.288-0.054c-0.171-0.032-0.298-0.177-0.306-0.352-0.009-0.174 0.103-0.331 0.271-0.379l0.716-0.206c0.183-0.053 0.282-0.077 0.381-0.099 0.18-0.042 0.35-0.082 0.479-0.153 0.275-0.148 0.554-0.29 0.833-0.432 0.802-0.41 1.561-0.796 2.239-1.322 0.036-0.029 0.073-0.057 0.11-0.084-1.649 0.075-3.323-0.844-4.931-1.727l-0.26-0.143c-0.153-0.084-0.228-0.261-0.182-0.429 0.046-0.169 0.19-0.314 0.375-0.276l0.835 0.029c0.098 0.003 0.198 0.011 0.298 0.019 0.187 0.016 0.359 0.030 0.507 0.004 0.306-0.055 0.613-0.105 0.922-0.154 0.892-0.142 1.733-0.275 2.543-0.566 0.043-0.016 0.086-0.031 0.13-0.046-1.601-0.448-2.901-1.831-4.159-3.17l-0.202-0.213c-0.119-0.127-0.135-0.32-0.041-0.465 0.093-0.144 0.275-0.204 0.439-0.144l0.784 0.285c0.093 0.033 0.185 0.071 0.276 0.11 0.172 0.073 0.334 0.141 0.481 0.161 0.308 0.042 0.615 0.091 0.923 0.139 0.892 0.141 1.73 0.268 2.594 0.247 0.046-0.001 0.092-0.002 0.139-0.003-1.383-0.919-2.193-2.636-2.975-4.295l-0.128-0.27c-0.075-0.158-0.031-0.346 0.105-0.454 0.137-0.109 0.33-0.11 0.466-0.003l0.659 0.514c0.078 0.061 0.153 0.126 0.228 0.191 0.141 0.122 0.274 0.237 0.407 0.301 0.281 0.134 0.558 0.276 0.835 0.417 0.804 0.41 1.564 0.797 2.39 1.037 0.044 0.013 0.089 0.026 0.132 0.039-1.030-1.302-1.269-3.184-1.501-5.003l-0.037-0.298c-0.021-0.173 0.078-0.338 0.241-0.4 0.162-0.062 0.347-0.003 0.444 0.142l0.467 0.692c0.055 0.081 0.107 0.166 0.159 0.252 0.097 0.159 0.188 0.309 0.294 0.412 0.225 0.214 0.445 0.435 0.666 0.655 0.638 0.638 1.241 1.241 1.952 1.724 0.038 0.027 0.077 0.053 0.114 0.080-0.579-1.557-0.225-3.421 0.118-5.225l0.055-0.293c0.032-0.171 0.178-0.298 0.352-0.306 0.177-0.011 0.331 0.105 0.379 0.272l0.23 0.802c0.028 0.095 0.051 0.193 0.074 0.29 0.043 0.18 0.083 0.352 0.153 0.482 0.147 0.274 0.29 0.551 0.431 0.83 0.41 0.803 0.797 1.562 1.323 2.242 0.029 0.036 0.057 0.073 0.084 0.11-0.068-1.66 0.845-3.323 1.728-4.932l0.142-0.259c0.083-0.153 0.254-0.23 0.43-0.182 0.167 0.046 0.283 0.201 0.276 0.375l-0.029 0.834c-0.003 0.099-0.012 0.198-0.020 0.298-0.016 0.186-0.031 0.361-0.003 0.507 0.055 0.307 0.105 0.618 0.155 0.927 0.141 0.89 0.274 1.729 0.564 2.537 0.016 0.043 0.031 0.086 0.046 0.13 0.448-1.6 1.831-2.9 3.168-4.157l0.215-0.203c0.128-0.119 0.32-0.135 0.465-0.041 0.145 0.096 0.206 0.278 0.147 0.442l-0.284 0.785c-0.033 0.093-0.073 0.186-0.111 0.278-0.071 0.172-0.14 0.333-0.16 0.48-0.042 0.309-0.091 0.619-0.14 0.928-0.141 0.89-0.273 1.729-0.246 2.588 0.002 0.046 0.003 0.093 0.003 0.139 0.919-1.383 2.637-2.192 4.298-2.975l0.269-0.127c0.157-0.074 0.345-0.032 0.454 0.106 0.109 0.135 0.11 0.329 0.002 0.466l-0.512 0.657c-0.062 0.079-0.126 0.154-0.191 0.228-0.123 0.141-0.238 0.274-0.302 0.409-0.135 0.281-0.276 0.558-0.418 0.836-0.41 0.804-0.796 1.563-1.036 2.388-0.013 0.044-0.027 0.089-0.039 0.132 1.302-1.030 3.184-1.269 5.004-1.501l0.295-0.037c0.186-0.022 0.339 0.078 0.4 0.24 0.062 0.163 0.003 0.347-0.141 0.445l-0.691 0.467c-0.082 0.055-0.167 0.107-0.253 0.159-0.16 0.097-0.309 0.188-0.412 0.294-0.215 0.225-0.434 0.444-0.654 0.663-0.639 0.639-1.243 1.243-1.727 1.955-0.027 0.039-0.054 0.078-0.083 0.115 0 0 0.001 0 0.002-0.001 1.557-0.579 3.422-0.225 5.225 0.118l0.294 0.057c0.171 0.032 0.297 0.178 0.305 0.352s-0.105 0.331-0.272 0.379l-0.802 0.23c-0.096 0.028-0.192 0.051-0.29 0.074-0.181 0.043-0.353 0.082-0.483 0.153-0.275 0.148-0.553 0.29-0.831 0.432-0.803 0.41-1.562 0.796-2.24 1.323-0.036 0.029-0.075 0.057-0.111 0.084 1.658-0.068 3.324 0.844 4.932 1.728l0.26 0.143c0.154 0.084 0.228 0.261 0.182 0.43s-0.203 0.257-0.375 0.276l-0.834-0.029c-0.098-0.003-0.198-0.012-0.298-0.020-0.186-0.016-0.364-0.031-0.507-0.003-0.307 0.055-0.618 0.105-0.928 0.155-0.889 0.141-1.728 0.274-2.537 0.564v0c-0.043 0.016-0.087 0.031-0.131 0.045 1.6 0.448 2.9 1.83 4.157 3.167l0.205 0.218c0.119 0.127 0.137 0.319 0.041 0.464-0.096 0.147-0.282 0.21-0.442 0.148l-0.788-0.286c-0.092-0.033-0.185-0.073-0.278-0.111-0.171-0.071-0.333-0.14-0.478-0.16-0.309-0.042-0.619-0.091-0.929-0.14-0.89-0.141-1.73-0.271-2.589-0.246-0.046 0.002-0.094 0.003-0.14 0.002v0c1.385 0.919 2.193 2.636 2.975 4.297l0.128 0.271c0.075 0.158 0.031 0.346-0.105 0.454-0.138 0.108-0.331 0.11-0.467 0.002l-0.657-0.512c-0.079-0.062-0.154-0.126-0.228-0.191-0.141-0.122-0.275-0.238-0.41-0.302-0.281-0.135-0.557-0.276-0.835-0.418-0.804-0.41-1.564-0.796-2.389-1.036-0.045-0.014-0.090-0.028-0.133-0.042 1.033 1.303 1.271 3.188 1.503 5.011l0.036 0.29c0.023 0.173-0.077 0.339-0.239 0.4-0.166 0.063-0.349 0.003-0.445-0.141l-0.467-0.691c-0.055-0.082-0.107-0.167-0.16-0.253-0.097-0.16-0.188-0.309-0.293-0.413-0.225-0.214-0.444-0.433-0.663-0.653-0.639-0.639-1.243-1.243-1.956-1.727-0.039-0.027-0.078-0.055-0.115-0.085 0.001 0.001 0.001 0.002 0.002 0.004 0.579 1.559 0.225 3.425-0.119 5.23l-0.054 0.29c-0.032 0.17-0.177 0.297-0.352 0.305-0.163 0.010-0.331-0.102-0.379-0.271l-0.231-0.803c-0.028-0.096-0.050-0.192-0.073-0.29-0.043-0.181-0.083-0.353-0.153-0.483-0.149-0.275-0.291-0.555-0.434-0.834-0.41-0.802-0.796-1.559-1.321-2.237-0.029-0.037-0.057-0.075-0.084-0.111 0.069 1.661-0.845 3.325-1.729 4.934l-0.142 0.258c-0.061 0.123-0.189 0.195-0.323 0.195zM13.554 25.034c0.030 0 0.060 0.004 0.089 0.013l0.231 0.059c0.129 0.035 0.23 0.139 0.265 0.269 0.067 0.258 0.141 0.515 0.233 0.77 0.315 0.876 0.46 1.792 0.601 2.677 0.048 0.302 0.096 0.605 0.15 0.906 0.011 0.061 0.018 0.122 0.022 0.182 0.601-1.166 1.056-2.286 1.010-3.38-0.009-0.198 0.003-0.397 0.016-0.597l0.009-0.148c0.011-0.196 0.172-0.352 0.368-0.354 0.084-0.002 0.167-0.007 0.251-0.013 0.138 0.001 0.318 0.053 0.391 0.164 0.132 0.202 0.256 0.389 0.395 0.569 0.569 0.734 0.99 1.558 1.396 2.355 0.14 0.275 0.279 0.548 0.425 0.819 0.031 0.054 0.055 0.11 0.078 0.165 0.211-1.294 0.298-2.5-0.083-3.525-0.057-0.153-0.098-0.31-0.14-0.47l-0.043-0.162c-0.052-0.189 0.049-0.387 0.235-0.453l0.119-0.043c0.086-0.030 0.172-0.059 0.256-0.095 0.124-0.050 0.269-0.033 0.375 0.050 0.074 0.058 0.143 0.119 0.211 0.181 0.074 0.066 0.145 0.132 0.226 0.189 0.772 0.525 1.429 1.182 2.065 1.817 0.215 0.215 0.43 0.431 0.651 0.641 0.045 0.043 0.086 0.089 0.125 0.134-0.199-1.296-0.49-2.471-1.169-3.327-0.089-0.111-0.165-0.233-0.243-0.354l-0.095-0.147c-0.109-0.162-0.075-0.382 0.079-0.503 0.102-0.081 0.202-0.166 0.3-0.253 0.101-0.092 0.244-0.118 0.373-0.073l0.149 0.054c0.123 0.045 0.244 0.091 0.371 0.127 0.892 0.259 1.718 0.679 2.518 1.087 0.273 0.139 0.546 0.278 0.82 0.411 0.057 0.028 0.109 0.057 0.161 0.090-0.59-1.171-1.229-2.199-2.139-2.802-0.117-0.078-0.225-0.166-0.334-0.256l-0.133-0.108c-0.154-0.119-0.189-0.336-0.085-0.498 0.071-0.112 0.141-0.227 0.208-0.343 0.070-0.119 0.203-0.186 0.338-0.187l0.129 0.004c0.135 0.005 0.272 0.011 0.409 0.007 0.931-0.032 1.845 0.116 2.731 0.255 0.304 0.048 0.608 0.097 0.912 0.138 0.062 0.009 0.122 0.020 0.179 0.034-0.923-0.931-1.847-1.71-2.9-2.005-0.146-0.039-0.289-0.096-0.431-0.151l-0.157-0.061c-0.179-0.067-0.281-0.258-0.234-0.445l0.037-0.142c0.021-0.076 0.042-0.153 0.058-0.229 0.029-0.137 0.13-0.245 0.265-0.285l0.127-0.036c0.139-0.038 0.277-0.078 0.415-0.127 0.874-0.315 1.788-0.46 2.672-0.601 0.304-0.048 0.61-0.097 0.912-0.151 0.061-0.011 0.122-0.018 0.182-0.022-1.166-0.601-2.282-1.053-3.38-1.010-0.175 0.006-0.351-0.002-0.529-0.014l-0.161-0.010c-0.189-0.010-0.341-0.158-0.355-0.346-0.010-0.112-0.018-0.224-0.032-0.334-0.017-0.141 0.047-0.278 0.164-0.357 0.222-0.147 0.38-0.252 0.532-0.37 0.736-0.57 1.562-0.991 2.359-1.398 0.274-0.14 0.547-0.278 0.816-0.423 0.054-0.030 0.11-0.055 0.165-0.078-1.295-0.21-2.501-0.298-3.525 0.083-0.204 0.076-0.416 0.13-0.627 0.185l-0.123 0.032c-0.181 0.044-0.367-0.045-0.441-0.217-0.022-0.054-0.048-0.106-0.075-0.158l-0.062-0.126c-0.061-0.13-0.042-0.284 0.048-0.396 0.067-0.082 0.137-0.16 0.207-0.238 0.095-0.105 0.189-0.207 0.269-0.325 0.526-0.772 1.183-1.429 1.818-2.064 0.215-0.215 0.431-0.431 0.641-0.651 0.043-0.045 0.087-0.086 0.133-0.125-1.296 0.199-2.47 0.489-3.326 1.168-0.237 0.188-0.496 0.351-0.756 0.511-0.159 0.094-0.359 0.065-0.481-0.073l-0.127-0.14c-0.099-0.107-0.128-0.261-0.075-0.397 0.109-0.271 0.207-0.548 0.29-0.834 0.259-0.894 0.679-1.721 1.087-2.519 0.139-0.273 0.278-0.546 0.411-0.821 0.028-0.055 0.057-0.109 0.090-0.16-1.171 0.59-2.198 1.229-2.802 2.139-0.171 0.257-0.374 0.516-0.64 0.819-0.118 0.135-0.316 0.167-0.473 0.076-0.125-0.073-0.308-0.279-0.297-0.423 0.028-0.331 0.038-0.665 0.029-1.004-0.030-0.93 0.115-1.844 0.255-2.73 0.048-0.304 0.097-0.608 0.138-0.912 0.009-0.062 0.020-0.122 0.034-0.179-0.931 0.923-1.71 1.847-2.005 2.901-0.099 0.359-0.233 0.725-0.396 1.088-0.074 0.162-0.25 0.253-0.421 0.213-0.144-0.031-0.321-0.159-0.354-0.302-0.094-0.416-0.191-0.759-0.305-1.079-0.315-0.875-0.461-1.789-0.601-2.673-0.048-0.304-0.097-0.608-0.151-0.911-0.011-0.061-0.018-0.122-0.022-0.181-0.601 1.166-1.056 2.286-1.010 3.379 0.017 0.39-0.002 0.803-0.057 1.258-0.019 0.161-0.14 0.29-0.298 0.323s-0.32-0.039-0.401-0.18c-0.236-0.409-0.45-0.733-0.674-1.022-0.571-0.736-0.992-1.562-1.399-2.361-0.139-0.273-0.278-0.546-0.422-0.815-0.030-0.055-0.055-0.11-0.078-0.165-0.211 1.294-0.298 2.5 0.083 3.525 0.139 0.373 0.251 0.787 0.341 1.265 0.031 0.159-0.044 0.319-0.186 0.398-0.141 0.080-0.317 0.061-0.436-0.049l-0.142-0.129c-0.272-0.249-0.529-0.483-0.82-0.682-0.767-0.522-1.423-1.178-2.058-1.811-0.217-0.218-0.433-0.433-0.653-0.644-0.045-0.043-0.086-0.087-0.125-0.133 0.198 1.296 0.489 2.47 1.168 3.327 0.243 0.306 0.469 0.65 0.693 1.051 0.079 0.141 0.059 0.318-0.051 0.436-0.108 0.119-0.282 0.156-0.43 0.091-0.431-0.192-0.796-0.327-1.146-0.43-0.895-0.259-1.722-0.681-2.523-1.088-0.272-0.139-0.545-0.277-0.819-0.41-0.057-0.027-0.109-0.057-0.16-0.089 0.59 1.171 1.229 2.198 2.139 2.803 0.329 0.219 0.651 0.476 0.985 0.786 0.118 0.11 0.154 0.284 0.086 0.431s-0.224 0.235-0.382 0.219c-0.465-0.049-0.853-0.067-1.221-0.057-0.93 0.032-1.847-0.116-2.735-0.256-0.302-0.048-0.604-0.096-0.906-0.137-0.062-0.007-0.122-0.020-0.179-0.034 0.923 0.931 1.847 1.711 2.901 2.005 0.377 0.105 0.763 0.25 1.179 0.443 0.147 0.068 0.234 0.223 0.215 0.384s-0.137 0.292-0.294 0.325c-0.463 0.098-0.837 0.202-1.18 0.325-0.877 0.316-1.793 0.461-2.679 0.602-0.302 0.048-0.605 0.096-0.905 0.15-0.061 0.011-0.122 0.018-0.181 0.022 1.165 0.599 2.273 1.054 3.379 1.010 0.39-0.019 0.8 0.001 1.258 0.057 0.161 0.019 0.291 0.139 0.323 0.298s-0.039 0.32-0.18 0.401c-0.407 0.237-0.733 0.451-1.021 0.674-0.735 0.57-1.561 0.991-2.358 1.397-0.274 0.141-0.547 0.281-0.818 0.425-0.054 0.031-0.11 0.055-0.165 0.078 1.294 0.211 2.502 0.298 3.525-0.083 0.367-0.138 0.753-0.244 1.181-0.331 0.187-0.030 0.365 0.067 0.427 0.241 0.047 0.13 0.041 0.334-0.051 0.436l-0.175 0.195c-0.211 0.233-0.411 0.452-0.578 0.7-0.524 0.77-1.18 1.426-1.814 2.061-0.217 0.217-0.433 0.433-0.644 0.654-0.043 0.045-0.089 0.086-0.134 0.125 1.296-0.199 2.471-0.489 3.328-1.169 0.273-0.218 0.575-0.42 0.921-0.621 0.164-0.097 0.375-0.052 0.49 0.099 0.081 0.107 0.155 0.324 0.102 0.448-0.158 0.372-0.274 0.692-0.365 1.006-0.26 0.895-0.682 1.723-1.089 2.523-0.139 0.273-0.277 0.545-0.41 0.819-0.027 0.055-0.057 0.108-0.089 0.16 1.171-0.59 2.198-1.229 2.803-2.139 0.192-0.29 0.413-0.554 0.603-0.773 0.128-0.147 0.348-0.171 0.503-0.059 0.107 0.077 0.302 0.304 0.292 0.434-0.022 0.307-0.029 0.617-0.019 0.93 0.030 0.931-0.115 1.847-0.256 2.736-0.048 0.301-0.096 0.604-0.137 0.906-0.007 0.062-0.020 0.122-0.034 0.179 0.931-0.923 1.711-1.847 2.005-2.9 0.071-0.258 0.172-0.507 0.273-0.756 0.062-0.154 0.225-0.274 0.387-0.274zM26.27 17.983v0z"></path>
<path fill="#ffca00" style="fill: var(--color27, #ffca00)" d="M13.554 25.034c0.030 0 0.060 0.004 0.089 0.013l0.231 0.059c0.129 0.035 0.23 0.139 0.265 0.269 0.067 0.258 0.141 0.515 0.233 0.77 0.315 0.876 0.46 1.792 0.601 2.677 0.048 0.302 0.096 0.605 0.15 0.906 0.011 0.061 0.018 0.122 0.022 0.182 0.601-1.166 1.056-2.286 1.010-3.38-0.009-0.198 0.003-0.397 0.016-0.597l0.009-0.148c0.011-0.196 0.172-0.352 0.368-0.354 0.084-0.002 0.167-0.007 0.251-0.013 0.138 0.001 0.318 0.053 0.391 0.164 0.132 0.202 0.256 0.389 0.395 0.569 0.569 0.734 0.99 1.558 1.396 2.355 0.14 0.275 0.279 0.548 0.425 0.819 0.031 0.054 0.055 0.11 0.078 0.165 0.211-1.294 0.298-2.5-0.083-3.525-0.057-0.153-0.098-0.31-0.14-0.47l-0.043-0.162c-0.052-0.189 0.049-0.387 0.235-0.453l0.119-0.043c0.086-0.030 0.172-0.059 0.256-0.095 0.124-0.050 0.269-0.033 0.375 0.050 0.074 0.058 0.143 0.119 0.211 0.181 0.074 0.066 0.145 0.132 0.226 0.189 0.772 0.525 1.429 1.182 2.065 1.817 0.215 0.215 0.43 0.431 0.651 0.641 0.045 0.043 0.086 0.089 0.125 0.134-0.199-1.296-0.49-2.471-1.169-3.327-0.089-0.111-0.165-0.233-0.243-0.354l-0.095-0.147c-0.109-0.162-0.075-0.382 0.079-0.503 0.102-0.081 0.202-0.166 0.3-0.253 0.101-0.092 0.244-0.118 0.373-0.073l0.149 0.054c0.123 0.045 0.244 0.091 0.371 0.127 0.892 0.259 1.718 0.679 2.518 1.087 0.273 0.139 0.546 0.278 0.82 0.411 0.057 0.028 0.109 0.057 0.161 0.090-0.59-1.171-1.229-2.199-2.139-2.802-0.117-0.078-0.225-0.166-0.334-0.256l-0.133-0.108c-0.154-0.119-0.189-0.336-0.085-0.498 0.071-0.112 0.141-0.227 0.208-0.343 0.070-0.119 0.203-0.186 0.338-0.187l0.129 0.004c0.135 0.005 0.272 0.011 0.409 0.007 0.931-0.032 1.845 0.116 2.731 0.255 0.304 0.048 0.608 0.097 0.912 0.138 0.062 0.009 0.122 0.020 0.179 0.034-0.923-0.931-1.847-1.71-2.9-2.005-0.146-0.039-0.289-0.096-0.431-0.151l-0.157-0.061c-0.179-0.067-0.281-0.258-0.234-0.445l0.037-0.142c0.021-0.076 0.042-0.153 0.058-0.229 0.029-0.137 0.13-0.245 0.265-0.285l0.127-0.036c0.139-0.038 0.277-0.078 0.415-0.127 0.874-0.315 1.788-0.46 2.672-0.601 0.304-0.048 0.61-0.097 0.912-0.151 0.061-0.011 0.122-0.018 0.182-0.022-1.166-0.601-2.282-1.053-3.38-1.010-0.175 0.006-0.351-0.002-0.529-0.014l-0.161-0.010c-0.189-0.010-0.341-0.158-0.355-0.346-0.010-0.112-0.018-0.224-0.032-0.334-0.017-0.141 0.047-0.278 0.164-0.357 0.222-0.147 0.38-0.252 0.532-0.37 0.736-0.57 1.562-0.991 2.359-1.398 0.274-0.14 0.547-0.278 0.816-0.423 0.054-0.030 0.11-0.055 0.165-0.078-1.295-0.21-2.501-0.298-3.525 0.083-0.204 0.076-0.416 0.13-0.627 0.185l-0.123 0.032c-0.181 0.044-0.367-0.045-0.441-0.217-0.022-0.054-0.048-0.106-0.075-0.158l-0.062-0.126c-0.061-0.13-0.042-0.284 0.048-0.396 0.067-0.082 0.137-0.16 0.207-0.238 0.095-0.105 0.189-0.207 0.269-0.325 0.526-0.772 1.183-1.429 1.818-2.064 0.215-0.215 0.431-0.431 0.641-0.651 0.043-0.045 0.087-0.086 0.133-0.125-1.296 0.199-2.47 0.489-3.326 1.168-0.237 0.188-0.496 0.351-0.756 0.511-0.159 0.094-0.359 0.065-0.481-0.073l-0.127-0.14c-0.099-0.107-0.128-0.261-0.075-0.397 0.109-0.271 0.207-0.548 0.29-0.834 0.259-0.894 0.679-1.721 1.087-2.519 0.139-0.273 0.278-0.546 0.411-0.821 0.028-0.055 0.057-0.109 0.090-0.16-1.171 0.59-2.198 1.229-2.802 2.139-0.171 0.257-0.374 0.516-0.64 0.819-0.118 0.135-0.316 0.167-0.473 0.076-0.125-0.073-0.308-0.279-0.297-0.423 0.028-0.331 0.038-0.665 0.029-1.004-0.030-0.93 0.115-1.844 0.255-2.73 0.048-0.304 0.097-0.608 0.138-0.912 0.009-0.062 0.020-0.122 0.034-0.179-0.931 0.923-1.71 1.847-2.005 2.901-0.099 0.359-0.233 0.725-0.396 1.088-0.074 0.162-0.25 0.253-0.421 0.213-0.144-0.031-0.321-0.159-0.354-0.302-0.094-0.416-0.191-0.759-0.305-1.079-0.315-0.875-0.461-1.789-0.601-2.673-0.048-0.304-0.097-0.608-0.151-0.911-0.011-0.061-0.018-0.122-0.022-0.181-0.601 1.166-1.056 2.286-1.010 3.379 0.017 0.39-0.002 0.803-0.057 1.258-0.019 0.161-0.14 0.29-0.298 0.323s-0.32-0.039-0.401-0.18c-0.236-0.409-0.45-0.733-0.674-1.022-0.571-0.736-0.992-1.562-1.399-2.361-0.139-0.273-0.278-0.546-0.422-0.815-0.030-0.055-0.055-0.11-0.078-0.165-0.211 1.294-0.298 2.5 0.083 3.525 0.139 0.373 0.251 0.787 0.341 1.265 0.031 0.159-0.044 0.319-0.186 0.398-0.141 0.080-0.317 0.061-0.436-0.049l-0.142-0.129c-0.272-0.249-0.529-0.483-0.82-0.682-0.767-0.522-1.423-1.178-2.058-1.812-0.217-0.217-0.433-0.432-0.653-0.643-0.046-0.043-0.087-0.087-0.126-0.134 0.199 1.296 0.49 2.471 1.169 3.328 0.243 0.306 0.469 0.65 0.693 1.051 0.079 0.141 0.059 0.318-0.051 0.436-0.108 0.119-0.282 0.156-0.43 0.091-0.431-0.192-0.796-0.327-1.146-0.43-0.895-0.26-1.722-0.681-2.523-1.089-0.272-0.139-0.545-0.277-0.819-0.41-0.057-0.027-0.109-0.057-0.16-0.089 0.59 1.171 1.229 2.198 2.139 2.803 0.329 0.219 0.651 0.476 0.985 0.786 0.118 0.11 0.154 0.284 0.086 0.431s-0.224 0.235-0.382 0.219c-0.467-0.048-0.854-0.066-1.222-0.055-0.93 0.032-1.847-0.116-2.735-0.256-0.302-0.048-0.604-0.096-0.906-0.137-0.062-0.007-0.122-0.020-0.179-0.034 0.923 0.931 1.847 1.711 2.901 2.005 0.377 0.105 0.763 0.25 1.179 0.443 0.147 0.068 0.234 0.223 0.215 0.384s-0.137 0.292-0.294 0.325c-0.463 0.098-0.837 0.202-1.18 0.325-0.877 0.316-1.793 0.461-2.679 0.602-0.302 0.048-0.605 0.096-0.905 0.15-0.061 0.011-0.122 0.018-0.181 0.022 1.165 0.599 2.273 1.054 3.379 1.010 0.39-0.019 0.8 0.001 1.258 0.057 0.161 0.019 0.291 0.139 0.323 0.298s-0.039 0.32-0.18 0.401c-0.407 0.237-0.733 0.451-1.021 0.674-0.735 0.57-1.561 0.991-2.358 1.397-0.274 0.141-0.547 0.281-0.818 0.425-0.054 0.031-0.11 0.055-0.165 0.078 1.294 0.211 2.502 0.298 3.525-0.083 0.367-0.138 0.753-0.244 1.181-0.331 0.187-0.030 0.365 0.067 0.427 0.241 0.047 0.13 0.041 0.334-0.051 0.436l-0.175 0.195c-0.211 0.233-0.411 0.452-0.578 0.7-0.524 0.77-1.18 1.426-1.814 2.061-0.215 0.217-0.432 0.433-0.643 0.654-0.043 0.045-0.089 0.086-0.134 0.125 1.296-0.199 2.471-0.489 3.328-1.169 0.273-0.218 0.575-0.42 0.921-0.621 0.164-0.097 0.375-0.052 0.49 0.099 0.081 0.107 0.155 0.324 0.102 0.448-0.158 0.372-0.274 0.692-0.365 1.006-0.26 0.895-0.682 1.723-1.089 2.523-0.139 0.273-0.277 0.545-0.41 0.819-0.027 0.055-0.057 0.108-0.089 0.16 1.171-0.59 2.198-1.229 2.803-2.139 0.192-0.29 0.413-0.554 0.603-0.773 0.128-0.147 0.348-0.171 0.503-0.059 0.107 0.077 0.302 0.304 0.292 0.434-0.022 0.307-0.029 0.617-0.019 0.93 0.030 0.931-0.115 1.847-0.256 2.736-0.048 0.301-0.096 0.604-0.137 0.906-0.007 0.062-0.020 0.122-0.034 0.179 0.931-0.923 1.711-1.847 2.005-2.9 0.071-0.258 0.172-0.507 0.273-0.756 0.062-0.154 0.225-0.274 0.387-0.274z"></path>
<path fill="#f9e52f" style="fill: var(--color28, #f9e52f)" opacity="0.53" d="M23.777 16.001c0 4.295-3.482 7.777-7.777 7.777s-7.777-3.482-7.777-7.777c0-4.295 3.482-7.777 7.777-7.777s7.777 3.482 7.777 7.777z"></path>
<path fill="#f5a800" style="fill: var(--color29, #f5a800)" opacity="0.61" d="M22.447 16.001c0 3.561-2.886 6.447-6.447 6.447s-6.447-2.886-6.447-6.447c0-3.561 2.886-6.447 6.447-6.447s6.447 2.886 6.447 6.447z"></path>
<path fill="#000" style="fill: var(--color26, #000)" d="M15.999 24.624c-4.755 0-8.623-3.869-8.623-8.624s3.868-8.623 8.623-8.623c4.755 0 8.624 3.868 8.624 8.623s-3.869 8.624-8.624 8.624zM15.999 8.237c-4.282 0-7.763 3.483-7.763 7.763s3.483 7.763 7.763 7.763 7.763-3.483 7.763-7.763-3.482-7.763-7.763-7.763z"></path>
<path fill="#000" style="fill: var(--color26, #000)" d="M22.31 16.203c-0.208 0-0.375-0.169-0.375-0.377 0-3.221-2.621-5.842-5.843-5.842-0.208 0-0.377-0.169-0.377-0.377s0.169-0.377 0.377-0.377c3.636 0 6.594 2.959 6.594 6.595 0 0.208-0.169 0.377-0.375 0.377z"></path>
<path fill="#fbe68f" style="fill: var(--color30, #fbe68f)" opacity="0.63" d="M18.712 12.919c0.358 1.548-1.138 3.215-3.341 3.724s-4.279-0.333-4.636-1.881c-0.358-1.548 1.138-3.215 3.341-3.724s4.279 0.333 4.636 1.881z"></path>
</symbol>
</defs>
</svg>
